<svg width="352" height="244" viewBox="0 0 352 244" fill="none" xmlns="http://www.w3.org/2000/svg">
<path d="M24.2266 59.3606L77.2721 219.76" stroke="#006EFA" stroke-width="3.5182" stroke-linecap="round" stroke-dasharray="4.69 9.38"/>
<path d="M171.996 136.404L309.981 129.156" stroke="#006EFA" stroke-width="3.5182" stroke-linecap="round" stroke-dasharray="4.69 9.38"/>
<path d="M78.5351 214.709L190.941 17.6826M190.941 17.6826L323.555 125.037L280.613 227.339L169.47 125.037L28.0156 58.0982L190.941 17.6826Z" stroke="#006EFA" stroke-width="3.5182" stroke-linecap="round" stroke-dasharray="4.69 9.38"/>
<path d="M324.025 154.45C339.472 154.293 351.865 141.643 351.707 126.196C351.55 110.749 338.9 98.3562 323.454 98.5134C308.007 98.6707 295.614 111.32 295.771 126.767C295.928 142.214 308.578 154.609 324.025 154.45Z" fill="#53E5D0"/>
<path d="M324.278 150.286C337.259 150.152 347.676 139.522 347.543 126.541C347.409 113.56 336.779 103.142 323.798 103.275C310.817 103.409 300.399 114.04 300.533 127.021C300.664 140.004 311.297 150.419 324.278 150.286Z" fill="white" stroke="#53E5D0" stroke-width="3.49768"/>
<path d="M304.484 130.694C304.35 117.834 314.598 107.301 327.366 107.171C331.932 107.126 336.196 108.417 339.808 110.684C335.617 106.083 329.58 103.208 322.907 103.275C310.439 103.401 300.403 113.72 300.532 126.278C300.602 132.999 303.571 139.02 308.231 143.146C305.901 139.562 304.53 135.286 304.484 130.694Z" fill="#E5FBF8"/>
<path d="M328.363 120.517C329.21 119.972 329.535 118.79 328.865 118.011C328.053 117.07 327.018 116.407 325.795 116.079L325.788 115.332C325.776 114.246 324.949 113.377 323.93 113.389C322.914 113.399 322.102 114.286 322.112 115.372L322.119 116.059C319.658 116.772 318.026 118.931 318.051 121.548C318.116 128.153 326.927 127.378 326.962 130.827C326.981 132.733 325.874 133.549 324.25 133.565C322.793 133.581 321.736 132.78 320.997 131.622C320.332 130.576 319.046 130.006 318.035 130.651C317.348 131.091 316.983 131.966 317.321 132.735C318.193 134.736 319.949 136.38 322.329 136.917L322.337 137.63C322.348 138.716 323.176 139.585 324.194 139.573C325.21 139.563 326.023 138.676 326.013 137.59L326.007 136.935C329.013 136.282 330.915 134.029 330.88 130.574C330.819 124.388 321.821 124.955 321.786 121.328C321.775 120.228 322.643 119.415 323.782 119.403C324.45 119.395 325.016 119.579 325.522 119.994C326.355 120.683 327.462 121.102 328.363 120.517Z" fill="#53E5D0"/>
<path d="M28.4859 86.2504C43.9327 86.0931 56.3257 73.4434 56.1684 57.9965C56.0111 42.5496 43.3614 30.1567 27.9145 30.314C12.4676 30.4713 0.0746735 43.121 0.231949 58.5679C0.389225 74.0147 13.039 86.4096 28.4859 86.2504Z" fill="#53E5D0"/>
<path d="M28.7387 82.0861C41.7197 81.9526 52.1373 71.322 52.0038 58.3409C51.8704 45.3598 41.2397 34.9423 28.2586 35.0757C15.2775 35.2092 4.86 45.8398 4.99346 58.8209C5.12492 71.804 15.7576 82.2195 28.7387 82.0861Z" fill="white" stroke="#53E5D0" stroke-width="3.49768"/>
<path d="M8.94453 62.4945C8.81076 49.6348 19.0588 39.1013 31.8265 38.9712C36.3926 38.9258 40.6571 40.2171 44.2688 42.4843C40.0781 37.883 34.0407 35.0086 27.3683 35.0756C14.9001 35.2018 4.86366 45.5203 4.99343 58.0785C5.06331 64.7991 8.03212 70.8199 12.692 74.9462C10.362 71.3621 8.99045 67.086 8.94453 62.4945Z" fill="#E5FBF8"/>
<path d="M32.8238 52.3176C33.6706 51.7723 33.9958 50.5899 33.3261 49.811C32.5139 48.8703 31.4785 48.2072 30.2564 47.8796L30.2487 47.1327C30.2371 46.0462 29.4095 45.1773 28.3914 45.1893C27.3752 45.1993 26.5631 46.0861 26.5727 47.1726L26.5804 47.8597C24.1188 48.5727 22.4868 50.7317 22.5118 53.3482C22.5772 59.9531 31.388 59.1782 31.4227 62.6275C31.4419 64.5328 30.3353 65.3497 28.7109 65.3657C27.254 65.3817 26.1974 64.5808 25.4584 63.4224C24.7924 62.3758 23.5068 61.8066 22.4964 62.4517C21.8093 62.8911 21.4437 63.7659 21.7824 64.5348C22.6542 66.5361 24.4095 68.1799 26.7902 68.7171L26.7979 69.4301C26.8094 70.5167 27.637 71.3855 28.6551 71.3735C29.6713 71.3635 30.4835 70.4767 30.4738 69.3902L30.4681 68.7351C33.4743 68.082 35.3758 65.8291 35.3411 62.3738C35.2795 56.1883 26.2821 56.7555 26.2474 53.1285C26.2359 52.028 27.1039 51.2151 28.2432 51.2031C28.9111 51.1951 29.4769 51.3789 29.9831 51.7943C30.8164 52.4833 31.9231 52.9028 32.8238 52.3176Z" fill="#53E5D0"/>
<path d="M190.607 34.343C200.091 34.2465 207.699 26.4802 207.603 16.9966C207.506 7.51298 199.74 -0.0956504 190.256 0.000908981C180.773 0.0974683 173.164 7.86377 173.261 17.3474C173.357 26.831 181.124 34.4408 190.607 34.343Z" fill="#53E5D0"/>
<path d="M190.763 31.7854C198.732 31.7034 205.128 25.1767 205.046 17.207C204.964 9.23729 198.438 2.84145 190.468 2.92339C182.498 3.00532 176.102 9.53201 176.184 17.5017C176.265 25.4727 182.793 31.8673 190.763 31.7854Z" fill="white" stroke="#53E5D0" stroke-width="3.49768"/>
<path d="M178.61 19.7571C178.528 11.8619 184.82 5.39489 192.659 5.315C195.462 5.28716 198.08 6.07995 200.297 7.47188C197.725 4.64688 194.018 2.88216 189.921 2.92331C182.267 3.00078 176.105 9.33585 176.184 17.0459C176.227 21.172 178.05 24.8685 180.911 27.4018C179.48 25.2014 178.638 22.5761 178.61 19.7571Z" fill="#E5FBF8"/>
<path d="M193.27 13.511C193.79 13.1762 193.989 12.4503 193.578 11.9721C193.079 11.3945 192.444 10.9874 191.693 10.7863L191.689 10.3277C191.682 9.66065 191.173 9.12724 190.548 9.1346C189.924 9.14073 189.426 9.68517 189.432 10.3522L189.436 10.7741C187.925 11.2118 186.923 12.5374 186.939 14.1437C186.979 18.1988 192.388 17.723 192.409 19.8407C192.421 21.0105 191.742 21.5121 190.745 21.5219C189.85 21.5317 189.201 21.04 188.748 20.3288C188.339 19.6862 187.549 19.3368 186.929 19.7328C186.507 20.0026 186.283 20.5397 186.491 21.0118C187.026 22.2404 188.104 23.2496 189.565 23.5795L189.57 24.0172C189.577 24.6843 190.085 25.2177 190.71 25.2103C191.334 25.2042 191.833 24.6598 191.827 23.9927L191.823 23.5905C193.669 23.1895 194.836 21.8064 194.815 19.685C194.777 15.8874 189.253 16.2356 189.232 14.0088C189.225 13.3332 189.758 12.8341 190.457 12.8267C190.867 12.8218 191.215 12.9347 191.526 13.1897C192.037 13.6128 192.717 13.8703 193.27 13.511Z" fill="#53E5D0"/>
<path d="M279.017 243.999C288.501 243.902 296.11 236.136 296.013 226.653C295.916 217.169 288.15 209.56 278.667 209.657C269.183 209.753 261.574 217.52 261.671 227.003C261.767 236.487 269.534 244.097 279.017 243.999Z" fill="#53E5D0"/>
<path d="M279.173 241.441C287.143 241.359 293.538 234.833 293.457 226.863C293.375 218.893 286.848 212.497 278.878 212.579C270.908 212.661 264.513 219.188 264.595 227.158C264.675 235.128 271.203 241.523 279.173 241.441Z" fill="white" stroke="#53E5D0" stroke-width="3.49768"/>
<path d="M267.02 229.413C266.938 221.518 273.23 215.051 281.069 214.971C283.872 214.943 286.49 215.736 288.708 217.128C286.135 214.303 282.428 212.538 278.332 212.579C270.677 212.657 264.515 218.992 264.595 226.702C264.637 230.828 266.46 234.524 269.321 237.058C267.891 234.857 267.048 232.232 267.02 229.413Z" fill="#E5FBF8"/>
<path d="M281.68 223.167C282.2 222.832 282.399 222.106 281.988 221.628C281.49 221.05 280.854 220.643 280.103 220.442L280.099 219.983C280.092 219.316 279.584 218.783 278.959 218.79C278.335 218.796 277.836 219.341 277.842 220.008L277.847 220.43C276.335 220.868 275.333 222.193 275.349 223.799C275.389 227.855 280.798 227.379 280.82 229.496C280.831 230.666 280.152 231.168 279.155 231.178C278.26 231.187 277.611 230.696 277.158 229.985C276.749 229.342 275.96 228.993 275.339 229.389C274.917 229.658 274.693 230.195 274.901 230.668C275.436 231.896 276.514 232.905 277.975 233.235L277.98 233.673C277.987 234.34 278.495 234.873 279.12 234.866C279.744 234.86 280.243 234.316 280.237 233.648L280.233 233.246C282.079 232.845 283.247 231.462 283.225 229.341C283.187 225.543 277.663 225.891 277.642 223.665C277.635 222.989 278.168 222.49 278.868 222.483C279.278 222.478 279.625 222.59 279.936 222.845C280.447 223.269 281.127 223.526 281.68 223.167Z" fill="#53E5D0"/>
<path d="M76.355 243.88C91.8019 243.723 104.195 231.073 104.038 215.626C103.88 200.179 91.2305 187.786 75.7836 187.944C60.3368 188.101 47.9438 200.751 48.1011 216.198C48.2584 231.644 60.9081 244.039 76.355 243.88Z" fill="#53E5D0"/>
<path d="M76.6078 239.714C89.5889 239.581 100.006 228.95 99.873 215.969C99.7395 202.988 89.1088 192.57 76.1278 192.704C63.1467 192.837 52.7291 203.468 52.8626 216.449C52.9941 229.432 63.6267 239.847 76.6078 239.714Z" fill="white" stroke="#53E5D0" stroke-width="3.49768"/>
<path d="M56.8137 220.122C56.6799 207.263 66.928 196.729 79.6957 196.599C84.2617 196.554 88.5262 197.845 92.1379 200.112C87.9473 195.511 81.9098 192.637 75.2375 192.704C62.7693 192.83 52.7328 203.148 52.8626 215.706C52.9325 222.427 55.9013 228.448 60.5611 232.574C58.2312 228.99 56.8596 224.714 56.8137 220.122Z" fill="#E5FBF8"/>
<path d="M80.6929 209.948C81.5397 209.403 81.865 208.22 81.1952 207.441C80.383 206.501 79.3476 205.838 78.1255 205.51L78.1178 204.763C78.1063 203.677 77.2787 202.808 76.2606 202.82C75.2444 202.83 74.4322 203.716 74.4418 204.803L74.4495 205.49C71.988 206.203 70.3559 208.362 70.3809 210.979C70.4464 217.583 79.2572 216.809 79.2918 220.258C79.311 222.163 78.2044 222.98 76.5801 222.996C75.1231 223.012 74.0665 222.211 73.3275 221.053C72.6616 220.006 71.376 219.437 70.3655 220.082C69.6785 220.521 69.3128 221.396 69.6515 222.165C70.5234 224.166 72.2786 225.81 74.6593 226.347L74.667 227.061C74.6786 228.147 75.5061 229.016 76.5242 229.004C77.5404 228.994 78.3526 228.107 78.343 227.021L78.3372 226.365C81.3434 225.712 83.2449 223.459 83.2103 220.004C83.1487 213.819 74.1512 214.386 74.1166 210.759C74.105 209.658 74.973 208.845 76.1124 208.833C76.7802 208.825 77.346 209.009 77.8522 209.425C78.6856 210.114 79.7922 210.533 80.6929 209.948Z" fill="#53E5D0"/>
<path d="M163.485 198.701C202.022 198.701 233.262 167.46 233.262 128.923C233.262 90.3858 202.022 59.1453 163.485 59.1453C124.948 59.1453 93.707 90.3858 93.707 128.923C93.707 167.46 124.948 198.701 163.485 198.701Z" fill="#006EFA"/>
<path d="M163.484 187.536C195.856 187.536 222.098 161.294 222.098 128.923C222.098 96.5519 195.856 70.3098 163.484 70.3098C131.113 70.3098 104.871 96.5519 104.871 128.923C104.871 161.294 131.113 187.536 163.484 187.536Z" fill="white"/>
<path d="M114.976 140.309C114.976 107.245 141.789 80.432 174.853 80.432C186.676 80.432 197.686 83.8644 206.972 89.7841C196.243 77.8452 180.69 70.3005 163.412 70.3005C131.127 70.3005 104.861 96.5661 104.861 128.851C104.861 146.129 112.389 161.683 124.345 172.411C118.409 163.142 114.976 152.115 114.976 140.309Z" fill="#E6F1FF"/>
<path d="M174.92 114.2C177.117 112.865 177.986 109.935 176.279 107.982C174.209 105.621 171.553 103.945 168.408 103.098V101.243C168.408 98.5408 166.29 96.3596 163.667 96.3596C161.043 96.3596 158.925 98.5408 158.925 101.243V102.952C152.556 104.661 148.289 109.984 148.289 116.495C148.289 132.919 171.048 131.226 171.048 139.804C171.048 144.541 168.171 146.543 163.983 146.543C160.221 146.543 157.519 144.524 155.638 141.627C153.947 139.006 150.644 137.558 148.02 139.137C146.234 140.211 145.27 142.376 146.123 144.297C148.32 149.294 152.809 153.428 158.941 154.828V156.602C158.941 159.304 161.059 161.485 163.683 161.485C166.306 161.485 168.424 159.304 168.424 156.602V154.975C176.2 153.428 181.163 147.878 181.163 139.283C181.163 123.901 157.93 125.073 157.93 116.055C157.93 113.321 160.19 111.319 163.129 111.319C164.852 111.319 166.306 111.791 167.602 112.832C169.736 114.558 172.581 115.632 174.92 114.2Z" fill="#006EFA"/>
</svg>
