<?xml version="1.0" encoding="UTF-8"?>
<!DOCTYPE svg PUBLIC "-//W3C//DTD SVG 1.1//EN" "http://www.w3.org/Graphics/SVG/1.1/DTD/svg11.dtd">
<!-- Creator: CorelDRAW X5 -->
<svg xmlns="http://www.w3.org/2000/svg" xml:space="preserve" width="40.0002mm" height="40.0002mm" style="shape-rendering:geometricPrecision; text-rendering:geometricPrecision; image-rendering:optimizeQuality; fill-rule:evenodd; clip-rule:evenodd"
viewBox="0 0 4000 4000"
 xmlns:xlink="http://www.w3.org/1999/xlink">
 <defs>
  <style type="text/css">
   <![CDATA[
    .fil0 {fill:none}
    .fil1 {fill:#898989}
    .fil2 {fill:#00A285}
   ]]>
  </style>
 </defs>
 <g id="Capa_x0020_1">
  <metadata id="CorelCorpID_0Corel-Layer"/>
  <rect class="fil0" width="4000" height="4000"/>
  <path class="fil1" d="M1330 1488l-39 0c10,-175 79,-341 196,-472l27 27c18,17 46,17 63,0 17,-17 18,-46 0,-63l-27 -27c131,-117 297,-186 472,-196l0 39c0,25 20,45 45,45 25,0 45,-20 45,-45l0 -39c175,10 341,79 472,196l-27 28c-17,18 -17,46 0,63 17,17 46,18 63,0l28 -28c117,131 186,297 196,472l-39 0c-25,0 -45,20 -45,45 0,25 20,45 45,45l39 0c-10,175 -79,341 -196,472l-28 -28c-18,-17 -46,-17 -63,0 -17,17 -18,46 0,63l27 28c-131,117 -297,186 -472,196l0 -39c0,-25 -20,-45 -45,-45 -25,0 -45,20 -45,45l0 39c-175,-10 -341,-79 -472,-196l27 -27c17,-18 17,-46 0,-63 -17,-17 -46,-18 -63,0l-27 27c-117,-131 -186,-297 -196,-472l39 0c25,0 45,-20 45,-45 0,-25 -20,-45 -45,-45zm121 654c1,1 2,2 3,4 1,1 2,2 4,3 337,335 881,335 1219,0 1,-1 2,-2 4,-3 1,-1 2,-2 3,-4 335,-337 335,-881 0,-1219 -2,-3 -4,-5 -7,-6 -337,-335 -881,-335 -1219,0 -3,2 -5,4 -6,6 -335,337 -335,881 0,1219z"/>
  <path class="fil1" d="M1569 602c25,0 45,-20 45,-45l0 -230c0,-25 -20,-45 -45,-45 -25,0 -45,20 -45,45l0 230c0,25 20,45 45,45zm996 0c25,0 45,-20 45,-45l0 -230c0,-25 -20,-45 -45,-45 -25,0 -45,20 -45,45l0 230c0,25 20,45 45,45zm-780 -74c25,0 45,-20 45,-45l0 -297c0,-25 -20,-45 -45,-45 -25,0 -45,20 -45,45l0 297c0,25 20,45 45,45zm572 0c25,0 45,-20 45,-45l0 -297c0,-25 -20,-45 -45,-45 -25,0 -45,20 -45,45l0 297c0,25 20,45 45,45zm-290 0c25,0 45,-20 45,-45l0 -438c0,-25 -20,-45 -45,-45 -25,0 -45,20 -45,45l0 438c0,25 20,45 45,45z"/>
  <path class="fil1" d="M2617 2977c-7,0 -33,-17 -42,-21 -13,-6 -32,-12 -48,-16 11,-15 86,-50 104,-54 44,-11 89,-7 128,12 -15,21 -141,79 -142,79zm95 132c-6,-26 -25,-52 -37,-74 72,-38 123,-63 195,-105 76,-44 149,-24 158,10 -22,5 -303,160 -316,169zm-1914 -137l306 0 35 118c49,151 97,336 145,477l110 359 -480 0 -56 -477c-23,-159 -40,-319 -60,-478zm-79 0l0 -43c4,-22 15,-36 42,-36l364 0c40,0 49,40 57,70l27 99c40,-3 97,-46 120,-70 102,-101 235,-168 397,-168 141,0 201,42 304,86 70,30 251,19 339,19 42,0 195,-127 290,-127 85,0 106,4 179,53 19,-4 28,-12 49,-19 92,-31 182,13 214,61 149,-99 316,35 316,95 0,25 -3,25 -27,41l-62 43c-112,79 -313,209 -412,284 -42,32 -85,56 -129,87 -43,31 -84,55 -125,86 -53,40 -73,53 -138,78 -168,65 -323,24 -488,-4 -55,-9 -325,-67 -359,-58 -44,12 -140,76 -181,104 -30,20 -59,36 -88,55 31,134 122,290 37,290l-575 0c-36,0 -35,-80 -40,-118 -7,-49 -9,-89 -16,-137l-69 -548c-7,-49 -9,-89 -16,-137 -4,-30 -10,-61 -13,-87zm1598 601c-54,0 -108,-13 -154,-20 -110,-18 -384,-80 -479,-80 -56,0 -106,40 -156,71 -25,16 -47,28 -72,44 -25,16 -41,36 -73,43l-110 -370c-7,-23 -36,-109 -38,-126 177,-41 175,-232 512,-232 201,0 163,105 469,105 56,0 248,-7 287,3 36,9 69,29 92,51 21,20 49,60 49,99 -40,-9 -77,-1 -120,-7 -63,-9 -246,-5 -317,2 -47,5 -59,11 -59,52 0,13 9,16 16,26 67,0 119,-11 185,-11l350 13c31,-8 22,-22 31,-43 6,-15 4,-11 42,-31l144 -77c35,-17 62,-34 95,-53 45,-25 169,-93 207,-93 43,0 89,22 105,47 -65,43 -177,125 -235,160l-472 325c-44,29 -70,54 -129,72 -48,14 -114,29 -172,29zm-1297 211c0,57 54,111 95,111l32 0c131,0 140,-227 -16,-227 -61,0 -111,54 -111,116zm79 5c0,-81 102,-33 61,18 -25,30 -61,-1 -61,-18z"/>
  <path class="fil2" d="M2067 2119c324,0 586,-263 586,-586 0,-324 -263,-586 -586,-586 -324,0 -586,263 -586,586 0,324 263,586 586,586zm-61 -549l123 0c39,0 71,32 71,71 0,39 -32,71 -71,71l-163 0c-17,0 -30,-14 -30,-30 0,-21 -17,-38 -38,-38 -71,0 -38,143 68,143l65 0 0 78c0,21 17,38 38,38 21,0 38,-17 38,-38l0 -78 24 0c81,0 146,-66 146,-146 0,-81 -66,-146 -146,-146l-123 0c-39,0 -71,-32 -71,-71 0,-39 32,-71 71,-71l163 0c17,0 30,14 30,30 0,21 17,38 38,38 71,0 38,-143 -68,-143l-65 0 0 -78c0,-21 -17,-38 -38,-38 -21,0 -38,17 -38,38l0 78 -24 0c-81,0 -146,66 -146,146 0,81 66,146 146,146z"/>
 </g>
</svg>
