<svg width="344" height="344" viewBox="0 0 344 344" fill="none" xmlns="http://www.w3.org/2000/svg">
<path d="M97.7684 246.232C138.765 287.229 205.235 287.229 246.232 246.232C287.229 205.235 287.229 138.765 246.232 97.7684C205.235 56.7715 138.765 56.7715 97.7684 97.7684C56.7715 138.765 56.7714 205.235 97.7684 246.232Z" fill="#CCEBF8"/>
<path d="M256.939 256.939C210.029 303.85 133.971 303.85 87.0606 256.939C40.15 210.029 40.15 133.971 87.0607 87.0607C133.971 40.15 210.029 40.15 256.939 87.0606C303.85 133.971 303.85 210.029 256.939 256.939Z" stroke="#006EFA" stroke-width="3"/>
<path d="M172.266 239.592C209.927 239.592 240.456 209.062 240.456 171.402C240.456 133.741 209.927 103.212 172.266 103.212C134.606 103.212 104.076 133.741 104.076 171.402C104.076 209.062 134.606 239.592 172.266 239.592Z" fill="#006EFA"/>
<path d="M172.266 228.682C203.901 228.682 229.546 203.037 229.546 171.403C229.546 139.768 203.901 114.123 172.266 114.123C140.631 114.123 114.986 139.768 114.986 171.403C114.986 203.037 140.631 228.682 172.266 228.682Z" fill="white" stroke="#006EFA" stroke-width="2.9012"/>
<path d="M126.528 181.699C126.528 150.041 151.566 124.368 182.443 124.368C193.483 124.368 203.765 127.655 212.436 133.323C202.418 121.891 187.893 114.667 171.758 114.667C141.61 114.667 117.082 139.816 117.082 170.728C117.082 187.271 124.112 202.164 135.276 212.436C129.733 203.561 126.528 193.003 126.528 181.699Z" fill="#E6F1FF"/>
<path d="M183.441 157.015C185.588 155.711 186.437 152.848 184.769 150.939C182.746 148.632 180.151 146.994 177.078 146.167V144.353C177.078 141.713 175.008 139.581 172.444 139.581C169.88 139.581 167.81 141.713 167.81 144.353V146.023C161.586 147.694 157.416 152.895 157.416 159.258C157.416 175.308 179.657 173.654 179.657 182.037C179.657 186.666 176.846 188.622 172.753 188.622C169.077 188.622 166.436 186.65 164.598 183.819C162.945 181.258 159.717 179.842 157.153 181.385C155.408 182.435 154.466 184.55 155.3 186.427C157.447 191.311 161.833 195.351 167.826 196.719V198.453C167.826 201.094 169.896 203.225 172.459 203.225C175.023 203.225 177.093 201.094 177.093 198.453V196.862C184.692 195.351 189.542 189.927 189.542 181.528C189.542 166.496 166.837 167.641 166.837 158.829C166.837 156.156 169.046 154.2 171.919 154.2C173.602 154.2 175.023 154.661 176.29 155.679C178.375 157.365 181.155 158.415 183.441 157.015Z" fill="#006EFA"/>
<path d="M87.2018 283.648C103.2 283.485 116.036 270.383 115.873 254.385C115.71 238.386 102.608 225.551 86.61 225.714C70.6116 225.877 57.7761 238.978 57.939 254.977C58.1019 270.975 71.2034 283.813 87.2018 283.648Z" fill="#53E5D0"/>
<path d="M87.5945 277.604C100 277.476 109.956 267.317 109.829 254.911C109.701 242.505 99.5416 232.549 87.1357 232.677C74.7299 232.805 64.7741 242.964 64.9016 255.37C65.0272 267.778 75.1887 277.732 87.5945 277.604Z" fill="white"/>
<path d="M68.1058 259.483C67.9702 247.026 78.3631 236.822 91.3112 236.696C95.9417 236.652 100.267 237.903 103.929 240.099C99.6793 235.642 93.5566 232.857 86.79 232.922C74.1456 233.044 63.9673 243.04 64.0989 255.205C64.1698 261.716 67.1805 267.548 71.9062 271.545C69.5434 268.073 68.1524 263.931 68.1058 259.483Z" fill="#E5FBF8"/>
<path d="M91.5006 249.156C92.3099 248.635 92.6208 247.505 91.9807 246.761C91.2045 245.862 90.215 245.228 89.047 244.915L89.0397 244.201C89.0286 243.163 88.2377 242.332 87.2647 242.344C86.2936 242.353 85.5174 243.201 85.5266 244.239L85.534 244.896C83.1815 245.577 81.6218 247.641 81.6457 250.141C81.7082 256.453 90.1285 255.713 90.1616 259.009C90.18 260.83 89.1224 261.611 87.5701 261.626C86.1777 261.641 85.1679 260.876 84.4616 259.769C83.8253 258.769 82.5966 258.225 81.631 258.841C80.9743 259.261 80.6249 260.097 80.9486 260.832C81.7818 262.745 83.4592 264.316 85.7344 264.829L85.7418 265.51C85.7528 266.549 86.5437 267.379 87.5167 267.368C88.4879 267.358 89.2641 266.511 89.2549 265.472L89.2493 264.846C92.1223 264.222 93.9396 262.069 93.9065 258.767C93.8476 252.855 85.2489 253.397 85.2158 249.931C85.2047 248.879 86.0343 248.103 87.1231 248.091C87.7614 248.083 88.3021 248.259 88.7858 248.656C89.5823 249.315 90.6399 249.715 91.5006 249.156Z" fill="#53E5D0"/>
<path d="M257.391 283.648C273.39 283.485 286.225 270.383 286.062 254.385C285.899 238.386 272.798 225.551 256.799 225.714C240.801 225.877 227.966 238.978 228.128 254.977C228.291 270.975 241.393 283.813 257.391 283.648Z" fill="#53E5D0"/>
<path d="M257.784 277.604C270.19 277.476 280.146 267.317 280.018 254.911C279.891 242.505 269.731 232.549 257.325 232.677C244.919 232.805 234.964 242.964 235.091 255.37C235.217 267.778 245.378 277.732 257.784 277.604Z" fill="white"/>
<path d="M238.295 259.483C238.16 247.026 248.553 236.822 261.501 236.696C266.131 236.652 270.456 237.903 274.119 240.099C269.869 235.642 263.746 232.857 256.979 232.922C244.335 233.044 234.157 243.04 234.288 255.205C234.359 261.716 237.37 267.548 242.096 271.545C239.733 268.073 238.342 263.931 238.295 259.483Z" fill="#E5FBF8"/>
<path d="M261.69 249.156C262.499 248.635 262.81 247.505 262.17 246.761C261.394 245.862 260.404 245.228 259.236 244.915L259.229 244.201C259.218 243.163 258.427 242.332 257.454 242.344C256.483 242.353 255.707 243.201 255.716 244.239L255.723 244.896C253.371 245.577 251.811 247.641 251.835 250.141C251.898 256.453 260.318 255.713 260.351 259.009C260.369 260.83 259.312 261.611 257.76 261.626C256.367 261.641 255.357 260.876 254.651 259.769C254.015 258.769 252.786 258.225 251.82 258.841C251.164 259.261 250.814 260.097 251.138 260.832C251.971 262.745 253.649 264.316 255.924 264.829L255.931 265.51C255.942 266.549 256.733 267.379 257.706 267.368C258.677 267.358 259.454 266.511 259.444 265.472L259.439 264.846C262.312 264.222 264.129 262.069 264.096 258.767C264.037 252.855 255.438 253.397 255.405 249.931C255.394 248.879 256.224 248.103 257.313 248.091C257.951 248.083 258.492 248.259 258.975 248.656C259.772 249.315 260.829 249.715 261.69 249.156Z" fill="#53E5D0"/>
<path d="M87.2018 113.458C103.2 113.295 116.036 100.194 115.873 84.1952C115.71 68.1968 102.608 55.3613 86.61 55.5242C70.6116 55.6871 57.7761 68.7886 57.939 84.787C58.1019 100.785 71.2034 113.623 87.2018 113.458Z" fill="#53E5D0"/>
<path d="M87.5945 107.414C100 107.287 109.956 97.1272 109.829 84.7214C109.701 72.3156 99.5416 62.3598 87.1357 62.4873C74.7299 62.6148 64.7741 72.7744 64.9016 85.1802C65.0272 97.5879 75.1887 107.542 87.5945 107.414Z" fill="white"/>
<path d="M68.1058 89.2936C67.9702 76.8361 78.3631 66.6321 91.3112 66.506C95.9417 66.4621 100.267 67.713 103.929 69.9093C99.6793 65.4518 93.5566 62.6674 86.79 62.7323C74.1456 62.8545 63.9673 72.8503 64.0989 85.0157C64.1698 91.5261 67.1805 97.3586 71.9062 101.356C69.5434 97.8838 68.1524 93.7415 68.1058 89.2936Z" fill="#E5FBF8"/>
<path d="M91.5006 78.9663C92.3099 78.4452 92.6208 77.3152 91.9807 76.5708C91.2045 75.6718 90.215 75.0381 89.047 74.725L89.0397 74.0111C89.0286 72.9728 88.2377 72.1425 87.2647 72.1539C86.2936 72.1635 85.5174 73.011 85.5266 74.0493L85.534 74.7059C83.1815 75.3874 81.6218 77.4507 81.6457 79.9512C81.7082 86.2634 90.1285 85.5228 90.1616 88.8193C90.18 90.6402 89.1224 91.4209 87.5701 91.4362C86.1777 91.4514 85.1679 90.686 84.4616 89.5789C83.8253 88.5788 82.5966 88.0348 81.631 88.6513C80.9743 89.0712 80.6249 89.9073 80.9486 90.6421C81.7818 92.5547 83.4592 94.1256 85.7344 94.6391L85.7418 95.3205C85.7528 96.3588 86.5437 97.1892 87.5167 97.1777C88.4879 97.1682 89.2641 96.3207 89.2549 95.2823L89.2493 94.6562C92.1223 94.0321 93.9396 91.879 93.9065 88.5769C93.8476 82.6654 85.2489 83.2075 85.2158 79.7412C85.2047 78.6895 86.0343 77.9126 87.1231 77.9012C87.7614 77.8936 88.3021 78.0692 88.7858 78.4662C89.5823 79.1247 90.6399 79.5255 91.5006 78.9663Z" fill="#53E5D0"/>
<path d="M257.391 113.458C273.39 113.295 286.225 100.194 286.062 84.1952C285.899 68.1968 272.798 55.3613 256.799 55.5242C240.801 55.6871 227.966 68.7886 228.128 84.787C228.291 100.785 241.393 113.623 257.391 113.458Z" fill="#53E5D0"/>
<path d="M257.784 107.414C270.19 107.287 280.146 97.1272 280.018 84.7214C279.891 72.3156 269.731 62.3598 257.325 62.4873C244.919 62.6148 234.964 72.7744 235.091 85.1802C235.217 97.5879 245.378 107.542 257.784 107.414Z" fill="white"/>
<path d="M238.295 89.2936C238.16 76.8361 248.553 66.6321 261.501 66.506C266.131 66.4621 270.456 67.713 274.119 69.9093C269.869 65.4518 263.746 62.6674 256.979 62.7323C244.335 62.8545 234.157 72.8503 234.288 85.0157C234.359 91.5261 237.37 97.3586 242.096 101.356C239.733 97.8838 238.342 93.7415 238.295 89.2936Z" fill="#E5FBF8"/>
<path d="M261.69 78.9663C262.499 78.4452 262.81 77.3152 262.17 76.5708C261.394 75.6718 260.404 75.0381 259.236 74.725L259.229 74.0111C259.218 72.9728 258.427 72.1425 257.454 72.1539C256.483 72.1635 255.707 73.011 255.716 74.0493L255.723 74.7059C253.371 75.3874 251.811 77.4507 251.835 79.9512C251.898 86.2634 260.318 85.5228 260.351 88.8193C260.369 90.6402 259.312 91.4209 257.76 91.4362C256.367 91.4514 255.357 90.686 254.651 89.5789C254.015 88.5788 252.786 88.0348 251.82 88.6513C251.164 89.0712 250.814 89.9073 251.138 90.6421C251.971 92.5547 253.649 94.1256 255.924 94.6391L255.931 95.3205C255.942 96.3588 256.733 97.1892 257.706 97.1777C258.677 97.1682 259.454 96.3207 259.444 95.2823L259.439 94.6562C262.312 94.0321 264.129 91.879 264.096 88.5769C264.037 82.6654 255.438 83.2075 255.405 79.7412C255.394 78.6895 256.224 77.9126 257.313 77.9012C257.951 77.8936 258.492 78.0692 258.975 78.4662C259.772 79.1247 260.829 79.5255 261.69 78.9663Z" fill="#53E5D0"/>
</svg>
